<mxfile host="app.diagrams.net" agent="Mozilla/5.0 (Windows NT 10.0; Win64; x64) AppleWebKit/537.36 (KHTML, like Gecko) Chrome/130.0.0.0 Safari/537.36" version="24.8.3">
  <diagram name="Página-1" id="gQJ9bJFBMg2xlH--kQT2">
    <mxGraphModel grid="1" page="1" gridSize="10" guides="1" tooltips="1" connect="1" arrows="1" fold="1" pageScale="1" pageWidth="827" pageHeight="1169" math="0" shadow="0">
      <root>
        <mxCell id="0" />
        <mxCell id="1" parent="0" />
        <mxCell id="2d0QlfgJTlSps1NMLOIb-1" value="&lt;p style=&quot;margin:0px;margin-top:4px;text-align:center;&quot;&gt;&lt;b&gt;Land&lt;/b&gt;&lt;/p&gt;&lt;hr size=&quot;1&quot; style=&quot;border-style:solid;&quot;&gt;&lt;p style=&quot;text-align: center; margin: 0px 0px 0px 4px;&quot;&gt;Atributos:&lt;/p&gt;&lt;p style=&quot;margin:0px;margin-left:4px;&quot;&gt;- String type: tipo de vehiculo&lt;br&gt;- City city: composicion de la clase City representando la ciudad donde opera el vehiculo&lt;/p&gt;&lt;hr size=&quot;1&quot; style=&quot;border-style:solid;&quot;&gt;&lt;p style=&quot;text-align: center; margin: 0px 0px 0px 4px;&quot;&gt;Operaciones:&lt;/p&gt;&lt;p style=&quot;margin: 0px 0px 0px 4px;&quot;&gt;+ Land(int power, int year, String brand, String type, City city)&lt;/p&gt;&lt;p style=&quot;margin: 0px 0px 0px 4px;&quot;&gt;+ Land(String type, City city)&lt;/p&gt;&lt;p style=&quot;margin:0px;margin-left:4px;&quot;&gt;+ description(): String (descripcion del vehiculo terrestre)&lt;/p&gt;&lt;p style=&quot;margin:0px;margin-left:4px;&quot;&gt;+ moveWheels(): String&lt;br&gt;&lt;/p&gt;" style="verticalAlign=top;align=left;overflow=fill;html=1;whiteSpace=wrap;" vertex="1" parent="1">
          <mxGeometry x="680" y="340" width="330" height="180" as="geometry" />
        </mxCell>
        <mxCell id="2d0QlfgJTlSps1NMLOIb-2" value="&lt;p style=&quot;margin:0px;margin-top:4px;text-align:center;&quot;&gt;&lt;b&gt;Vehicle&lt;/b&gt;&lt;/p&gt;&lt;p style=&quot;margin:0px;margin-top:4px;text-align:center;&quot;&gt;&lt;b&gt;(abstract)&lt;/b&gt;&lt;/p&gt;&lt;hr size=&quot;1&quot; style=&quot;border-style:solid;&quot;&gt;&lt;p style=&quot;margin:0px;margin-left:4px;&quot;&gt;# int power: potencia del vehiculo&lt;br&gt;# int year: año de fabricacion&lt;/p&gt;&lt;p style=&quot;margin:0px;margin-left:4px;&quot;&gt;# String brand: marca del vehiculo&lt;/p&gt;&lt;hr size=&quot;1&quot; style=&quot;border-style:solid;&quot;&gt;&lt;p style=&quot;text-align: center; margin: 0px 0px 0px 4px;&quot;&gt;operaciones(abstract):&lt;/p&gt;&lt;p style=&quot;margin: 0px 0px 0px 4px;&quot;&gt;+ Vehicle (int power, int year, String brand)&lt;/p&gt;&lt;p style=&quot;margin: 0px 0px 0px 4px;&quot;&gt;+ description(): String (descripcion del vehiculo)&lt;/p&gt;" style="verticalAlign=top;align=left;overflow=fill;html=1;whiteSpace=wrap;rounded=1;" vertex="1" parent="1">
          <mxGeometry x="480" y="50" width="290" height="160" as="geometry" />
        </mxCell>
        <mxCell id="2d0QlfgJTlSps1NMLOIb-3" value="&lt;p style=&quot;margin:0px;margin-top:4px;text-align:center;&quot;&gt;&lt;b&gt;Amphibian&lt;/b&gt;&lt;/p&gt;&lt;hr size=&quot;1&quot; style=&quot;border-style:solid;&quot;&gt;&lt;p style=&quot;text-align: center; margin: 0px 0px 0px 4px;&quot;&gt;Atributos:&lt;/p&gt;&lt;p style=&quot;margin:0px;margin-left:4px;&quot;&gt;- String type: Tipo de vehiculo anfibio&lt;/p&gt;&lt;hr size=&quot;1&quot; style=&quot;border-style:solid;&quot;&gt;&lt;p style=&quot;text-align: center; margin: 0px 0px 0px 4px;&quot;&gt;Operaciones:&lt;/p&gt;&lt;p style=&quot;margin: 0px 0px 0px 4px;&quot;&gt;+ Amphibian(int power, int year, String brand, String type)&lt;/p&gt;&lt;p style=&quot;margin:0px;margin-left:4px;&quot;&gt;+ description(): String&lt;/p&gt;&lt;p style=&quot;margin:0px;margin-left:4px;&quot;&gt;+ pathPrograming(): String&lt;/p&gt;&lt;p style=&quot;margin:0px;margin-left:4px;&quot;&gt;+ moveWheels(): String&lt;br&gt;&lt;/p&gt;&lt;p style=&quot;margin:0px;margin-left:4px;&quot;&gt;+ moveJetPropulsion(): String&lt;/p&gt;" style="verticalAlign=top;align=left;overflow=fill;html=1;whiteSpace=wrap;" vertex="1" parent="1">
          <mxGeometry x="210" y="340" width="360" height="170" as="geometry" />
        </mxCell>
        <mxCell id="2d0QlfgJTlSps1NMLOIb-13" value="&lt;p style=&quot;margin:0px;margin-top:4px;text-align:center;&quot;&gt;&lt;b&gt;IEngineLand&lt;/b&gt;&lt;/p&gt;&lt;hr size=&quot;1&quot; style=&quot;border-style:solid;&quot;&gt;&lt;p style=&quot;text-align: center; margin: 0px 0px 0px 4px;&quot;&gt;Métodos:&lt;/p&gt;&lt;p style=&quot;text-align: center; margin: 0px 0px 0px 4px;&quot;&gt;&lt;span style=&quot;background-color: initial; text-align: left;&quot;&gt;+ moveWheels(): String (define el metodo para el movimiento de las ruedas)&lt;/span&gt;&lt;/p&gt;" style="verticalAlign=top;align=left;overflow=fill;html=1;whiteSpace=wrap;" vertex="1" parent="1">
          <mxGeometry x="700" y="630" width="260" height="100" as="geometry" />
        </mxCell>
        <mxCell id="2d0QlfgJTlSps1NMLOIb-14" value="&lt;p style=&quot;margin:0px;margin-top:4px;text-align:center;&quot;&gt;&lt;b&gt;WaterVehicle&lt;/b&gt;&lt;/p&gt;&lt;p style=&quot;margin:0px;margin-top:4px;text-align:center;&quot;&gt;&lt;b&gt;(&lt;/b&gt;Define comportamientos específicos de los vehículos que operan en agua.&lt;span style=&quot;background-color: initial; text-align: left;&quot;&gt;)&lt;/span&gt;&lt;/p&gt;&lt;hr size=&quot;1&quot; style=&quot;border-style:solid;&quot;&gt;&lt;p style=&quot;text-align: center; margin: 0px 0px 0px 4px;&quot;&gt;Métodos:&lt;/p&gt;&lt;p style=&quot;margin: 0px 0px 0px 4px;&quot;&gt;+ pathPrograming():&amp;nbsp;Define la funcionalidad para programar el recorrido de un vehículo acuático.&lt;/p&gt;&lt;p style=&quot;margin: 0px 0px 0px 4px;&quot;&gt;&lt;br&gt;&lt;/p&gt;" style="verticalAlign=top;align=left;overflow=fill;html=1;whiteSpace=wrap;" vertex="1" parent="1">
          <mxGeometry x="210" y="100" width="190" height="155" as="geometry" />
        </mxCell>
        <mxCell id="2d0QlfgJTlSps1NMLOIb-21" value="" style="edgeStyle=segmentEdgeStyle;endArrow=classic;html=1;curved=0;rounded=0;endSize=8;startSize=8;exitX=0.382;exitY=0;exitDx=0;exitDy=0;exitPerimeter=0;" edge="1" parent="1">
          <mxGeometry width="50" height="50" relative="1" as="geometry">
            <mxPoint x="239.86" y="339.25000000000006" as="sourcePoint" />
            <mxPoint x="519" y="210" as="targetPoint" />
            <Array as="points">
              <mxPoint x="390" y="339" />
              <mxPoint x="390" y="277" />
              <mxPoint x="519" y="277" />
              <mxPoint x="519" y="210" />
            </Array>
          </mxGeometry>
        </mxCell>
        <mxCell id="2d0QlfgJTlSps1NMLOIb-27" value="" style="edgeStyle=segmentEdgeStyle;endArrow=classic;html=1;curved=0;rounded=0;endSize=8;startSize=8;exitX=0.5;exitY=0;exitDx=0;exitDy=0;entryX=0.66;entryY=1.01;entryDx=0;entryDy=0;entryPerimeter=0;" edge="1" parent="1" source="2d0QlfgJTlSps1NMLOIb-1" target="2d0QlfgJTlSps1NMLOIb-2">
          <mxGeometry width="50" height="50" relative="1" as="geometry">
            <mxPoint x="930" y="300" as="sourcePoint" />
            <mxPoint x="670" y="230" as="targetPoint" />
            <Array as="points">
              <mxPoint x="830" y="340" />
              <mxPoint x="830" y="280" />
              <mxPoint x="670" y="280" />
              <mxPoint x="670" y="212" />
            </Array>
          </mxGeometry>
        </mxCell>
        <mxCell id="2d0QlfgJTlSps1NMLOIb-37" value="" style="endArrow=block;dashed=1;endFill=0;endSize=12;html=1;rounded=0;entryX=0.558;entryY=1;entryDx=0;entryDy=0;exitX=0.294;exitY=0.013;exitDx=0;exitDy=0;exitPerimeter=0;entryPerimeter=0;" edge="1" parent="1" source="2d0QlfgJTlSps1NMLOIb-3" target="2d0QlfgJTlSps1NMLOIb-14">
          <mxGeometry width="160" relative="1" as="geometry">
            <mxPoint x="200" y="260" as="sourcePoint" />
            <mxPoint x="360" y="260" as="targetPoint" />
          </mxGeometry>
        </mxCell>
        <mxCell id="x1neWV1Gcaj-4v8t2zoj-2" value="" style="endArrow=block;dashed=1;endFill=0;endSize=12;html=1;rounded=0;exitX=0.667;exitY=1;exitDx=0;exitDy=0;exitPerimeter=0;" edge="1" parent="1" source="2d0QlfgJTlSps1NMLOIb-1">
          <mxGeometry width="160" relative="1" as="geometry">
            <mxPoint x="790" y="660" as="sourcePoint" />
            <mxPoint x="900" y="629" as="targetPoint" />
            <Array as="points">
              <mxPoint x="900" y="610" />
            </Array>
          </mxGeometry>
        </mxCell>
        <mxCell id="gxliJJPG9KfWwQ03Hq5k-1" value="&lt;p style=&quot;margin:0px;margin-top:4px;text-align:center;&quot;&gt;&lt;b&gt;City&lt;/b&gt;&lt;/p&gt;&lt;hr size=&quot;1&quot; style=&quot;border-style:solid;&quot;&gt;&lt;p style=&quot;text-align: center; margin: 0px 0px 0px 4px;&quot;&gt;Atributos:&lt;/p&gt;&lt;p style=&quot;margin:0px;margin-left:4px;&quot;&gt;- String type (tipo de vehiculo)&lt;/p&gt;&lt;p style=&quot;margin:0px;margin-left:4px;&quot;&gt;- String code: (codigo de la ciudad&lt;/p&gt;&lt;hr size=&quot;1&quot; style=&quot;border-style:solid;&quot;&gt;&lt;p style=&quot;text-align: center; margin: 0px 0px 0px 4px;&quot;&gt;Operaciones:&lt;/p&gt;&lt;p style=&quot;margin: 0px 0px 0px 4px;&quot;&gt;+ String getName(): (devuelve el nombre de la ciudad)&lt;/p&gt;&lt;p style=&quot;margin: 0px 0px 0px 4px;&quot;&gt;+ String getCode(): (devuelve el codigo de la ciudad)&lt;/p&gt;" style="verticalAlign=top;align=left;overflow=fill;html=1;whiteSpace=wrap;" vertex="1" parent="1">
          <mxGeometry x="827" y="50" width="240" height="170" as="geometry" />
        </mxCell>
        <mxCell id="gxliJJPG9KfWwQ03Hq5k-2" value="" style="endArrow=diamondThin;endFill=1;endSize=24;html=1;rounded=0;entryX=0.554;entryY=0.996;entryDx=0;entryDy=0;entryPerimeter=0;exitX=0.848;exitY=0;exitDx=0;exitDy=0;exitPerimeter=0;" edge="1" parent="1" source="2d0QlfgJTlSps1NMLOIb-1" target="gxliJJPG9KfWwQ03Hq5k-1">
          <mxGeometry width="160" relative="1" as="geometry">
            <mxPoint x="960" y="338" as="sourcePoint" />
            <mxPoint x="1120" y="190" as="targetPoint" />
          </mxGeometry>
        </mxCell>
        <mxCell id="54bgxQfskHDYsTDWAkt9-2" value="" style="endArrow=block;dashed=1;endFill=0;endSize=12;html=1;rounded=0;exitX=0.614;exitY=1;exitDx=0;exitDy=0;exitPerimeter=0;entryX=0.335;entryY=0.008;entryDx=0;entryDy=0;entryPerimeter=0;" edge="1" parent="1" source="2d0QlfgJTlSps1NMLOIb-3" target="2d0QlfgJTlSps1NMLOIb-13">
          <mxGeometry width="160" relative="1" as="geometry">
            <mxPoint x="410" y="501" as="sourcePoint" />
            <mxPoint x="470" y="630" as="targetPoint" />
            <Array as="points" />
          </mxGeometry>
        </mxCell>
        <mxCell id="54bgxQfskHDYsTDWAkt9-3" style="edgeStyle=orthogonalEdgeStyle;rounded=0;orthogonalLoop=1;jettySize=auto;html=1;exitX=0.5;exitY=1;exitDx=0;exitDy=0;" edge="1" parent="1" source="2d0QlfgJTlSps1NMLOIb-13" target="2d0QlfgJTlSps1NMLOIb-13">
          <mxGeometry relative="1" as="geometry" />
        </mxCell>
        <mxCell id="4tH4VPduCjN7pF91s3dm-1" value="&lt;p style=&quot;margin:0px;margin-top:4px;text-align:center;&quot;&gt;&lt;b&gt;IEngineWater&lt;/b&gt;&lt;/p&gt;&lt;hr size=&quot;1&quot; style=&quot;border-style:solid;&quot;&gt;&lt;p style=&quot;text-align: center; margin: 0px 0px 0px 4px;&quot;&gt;Métodos:&lt;/p&gt;&lt;p style=&quot;text-align: center; margin: 0px 0px 0px 4px;&quot;&gt;+ moveJetPropulsion(): String (Define el método para el movimiento por propulsión a chorro)&lt;/p&gt;" style="verticalAlign=top;align=left;overflow=fill;html=1;whiteSpace=wrap;" vertex="1" parent="1">
          <mxGeometry x="250" y="630" width="260" height="100" as="geometry" />
        </mxCell>
        <mxCell id="4tH4VPduCjN7pF91s3dm-4" value="" style="endArrow=block;dashed=1;endFill=0;endSize=12;html=1;rounded=0;entryX=0.346;entryY=-0.02;entryDx=0;entryDy=0;entryPerimeter=0;exitX=0.373;exitY=1.009;exitDx=0;exitDy=0;exitPerimeter=0;" edge="1" parent="1" source="2d0QlfgJTlSps1NMLOIb-3" target="4tH4VPduCjN7pF91s3dm-1">
          <mxGeometry width="160" relative="1" as="geometry">
            <mxPoint x="340" y="520" as="sourcePoint" />
            <mxPoint x="340" y="599" as="targetPoint" />
            <Array as="points" />
          </mxGeometry>
        </mxCell>
      </root>
    </mxGraphModel>
  </diagram>
</mxfile>
